# xmcd
#
# Track frame offsets: 
#        150
#        30572
#        50533
#        76495
#        99838
#        112774
#        140314
#        161631
#        192388
#        212596
#        235449
#        255044
#
# Disc length: 3781 seconds
#
# Revision: 0
# Processed by: cddbd v1.5.2PL0 Copyright (c) Steve Scherf et al.
# Submitted via: ExactAudioCopyFreeDBPlugin 1.0
#
DISCID=900ec30c
DTITLE=Tall Richard - Hot For a Woman
DYEAR=1900
DGENRE=Blues
TTITLE0=Hey Baby (Why are you so mean?)
TTITLE1=Late, Late In The Evening
TTITLE2=Hot For A Woman
TTITLE3=Vidar Is The Man
TTITLE4=Rich's Boogie
TTITLE5=Whatcha' Doin' Little Girl?
TTITLE6=Sounds To Me Like
TTITLE7=Ballad For Lovers
TTITLE8=Walter's Boogie
TTITLE9=Wee Baby Blues
TTITLE10=Workin' For The Woman
TTITLE11=Dancin', Prancin' And Romancin'
EXTD=
EXTT0=
EXTT1=
EXTT2=
EXTT3=
EXTT4=
EXTT5=
EXTT6=
EXTT7=
EXTT8=
EXTT9=
EXTT10=
EXTT11=
PLAYORDER=
